<svg xmlns="http://www.w3.org/2000/svg" viewBox="0 0 512 512"><title>creditask_logo</title><path d="M443.92,44.25H68.14a47.11,47.11,0,0,0-47,47V420a47.11,47.11,0,0,0,47,47H443.92a47.11,47.11,0,0,0,47-47V91.22A47.11,47.11,0,0,0,443.92,44.25Zm0,375.78H68.14V91.22H443.92Z" style="fill:#1b1464;fill-rule:evenodd"/><polygon points="430.06 218.52 396.71 185.17 322.26 259.62 289.14 226.27 256.03 259.38 322.26 326.08 430.06 218.52" style="fill:#0071bc;fill-rule:evenodd"/><rect x="91.63" y="138.19" width="117.43" height="46.97" style="fill:#29abe2"/><rect x="91.63" y="232.14" width="117.43" height="46.97" style="fill:#0071bc"/><rect x="91.63" y="326.08" width="117.43" height="46.97" style="fill:#2e3192"/></svg>